cyclingleg_Default_states
version=1
nRows=14
nColumns=49
inDegrees=yes

# SIMM Motion File Header:
name cyclingleg_Default_states
datacolumns 49
datarows 14
otherdata 1
range 0.51164142 0.52054600
endheader
time	/jointset/bb/crank_angle/value	/jointset/bb/crank_angle/speed	/jointset/spindle/pedal_angle_r/value	/jointset/spindle/pedal_angle_r/speed	/jointset/ground_pelvis/pelvis_tilt/value	/jointset/ground_pelvis/pelvis_tilt/speed	/jointset/ground_pelvis/pelvis_list/value	/jointset/ground_pelvis/pelvis_list/speed	/jointset/ground_pelvis/pelvis_rotation/value	/jointset/ground_pelvis/pelvis_rotation/speed	/jointset/ground_pelvis/pelvis_tx/value	/jointset/ground_pelvis/pelvis_tx/speed	/jointset/ground_pelvis/pelvis_ty/value	/jointset/ground_pelvis/pelvis_ty/speed	/jointset/ground_pelvis/pelvis_tz/value	/jointset/ground_pelvis/pelvis_tz/speed	/jointset/hip_r/hip_angle_r/value	/jointset/hip_r/hip_angle_r/speed	/jointset/hip_r/hip_adduction_r/value	/jointset/hip_r/hip_adduction_r/speed	/jointset/hip_r/hip_rotation_r/value	/jointset/hip_r/hip_rotation_r/speed	/jointset/knee_r/knee_angle_r/value	/jointset/knee_r/knee_angle_r/speed	/jointset/knee_r/tib_tx_r/value	/jointset/knee_r/tib_tx_r/speed	/jointset/knee_r/tib_ty_r/value	/jointset/knee_r/tib_ty_r/speed	/jointset/tib_pat_r/pat_angle_r/value	/jointset/tib_pat_r/pat_angle_r/speed	/jointset/tib_pat_r/pat_tx_r/value	/jointset/tib_pat_r/pat_tx_r/speed	/jointset/tib_pat_r/pat_ty_r/value	/jointset/tib_pat_r/pat_ty_r/speed	/jointset/ankle_r/ankle_angle_r/value	/jointset/ankle_r/ankle_angle_r/speed	/jointset/subtalar_r/subtalar_angle_r/value	/jointset/subtalar_r/subtalar_angle_r/speed	/jointset/mtp_r/mtp_angle_r/value	/jointset/mtp_r/mtp_angle_r/speed	/forceset/bifemlh_r/activation	/forceset/bifemlh_r/fiber_length	/forceset/bifemsh_r/activation	/forceset/bifemsh_r/fiber_length	/forceset/glut_max2_r/activation	/forceset/glut_max2_r/fiber_length	/forceset/vas_int_r/activation	/forceset/vas_int_r/fiber_length
      0.51164142	   -430.57463191	   -713.23773905	    438.59110368	    840.98185897	      0.00000000	      0.00000000	      0.00000000	      0.00000000	     -0.00000000	     -0.00000000	     -0.10000000	     -0.00000000	     -0.05000000	     -0.00000000	     -0.00000000	      0.00000000	     72.73439158	   -256.93353149	      4.31481899	      2.28496545	     -1.29715099	     32.29066440	    -86.51529916	    418.33325046	      0.00425229	      0.04611349	     -0.48472895	      0.14466977	     17.55628373	     -1.07046044	      0.03407040	      0.15476135	     -0.02258604	      0.01164269	     22.30042755	    -35.53419083	      0.00000000	     -0.00000000	      0.00000000	      0.00000000	      0.02130451	      0.13777545	      0.02003145	      0.15278217	      0.02003145	      0.15155279	      0.02202837	      0.14634642
      0.51236277	   -431.08920136	   -713.43861596	    439.19772502	    840.91476829	      0.00000000	      0.00000000	      0.00000000	      0.00000000	     -0.00000000	     -0.00000000	     -0.10000000	     -0.00000000	     -0.05000000	     -0.00000000	     -0.00000000	     -0.00000000	     72.54845152	   -258.59418251	      4.31645915	      2.26244549	     -1.27385079	     32.31060415	    -86.21326557	    419.07130653	      0.00428527	      0.04530643	     -0.48462452	      0.14486933	     17.55552377	     -1.03637181	      0.03418197	      0.15459351	     -0.02257777	      0.01129309	     22.27503468	    -34.86872473	      0.00000000	     -0.00000000	      0.00000000	      0.00000000	      0.02136175	      0.13772880	      0.02003115	      0.15289526	      0.02003115	      0.15146491	      0.02200896	      0.14617612
      0.51303192	   -431.56666063	   -713.63606563	    439.76040262	    840.86891721	      0.00000000	      0.00000000	      0.00000000	      0.00000000	     -0.00000000	     -0.00000000	     -0.10000000	     -0.00000000	     -0.05000000	     -0.00000000	     -0.00000000	     -0.00000000	     72.37490231	   -260.12339672	      4.31796602	      2.24136918	     -1.25222402	     32.32945846	    -85.93261926	    419.74821390	      0.00431533	      0.04455493	     -0.48452752	      0.14504872	     17.55484115	     -1.00373680	      0.03428537	      0.15443446	     -0.02257032	      0.01096057	     22.25190948	    -34.24962750	      0.00000000	     -0.00000000	      0.00000000	      0.00000000	      0.02141498	      0.13768514	      0.02003087	      0.15304184	      0.02003087	      0.15138256	      0.02199113	      0.14601761
      0.51370106	   -432.04425633	   -713.84656148	    440.32305567	    840.84154793	      0.00000000	      0.00000000	      0.00000000	      0.00000000	     -0.00000000	     -0.00000000	     -0.10000000	     -0.00000000	     -0.05000000	     -0.00000000	     -0.00000000	     -0.00000000	     72.20033316	   -261.64273394	      4.31945872	      2.22012312	     -1.23058449	     32.34877538	    -85.65152205	    420.41908642	      0.00434489	      0.04380091	     -0.48443040	      0.14522306	     17.55418070	     -0.97012370	      0.03438865	      0.15427273	     -0.02256310	      0.01062012	     22.22919910	    -33.62890768	      0.00000000	     -0.00000000	      0.00000000	      0.00000000	      0.02146834	      0.13764112	      0.02003060	      0.15312821	      0.02003060	      0.15129940	      0.02197346	      0.14585858
      0.51442189	   -432.55890063	   -714.08447027	    440.92915052	    840.82862397	      0.00000000	      0.00000000	      0.00000000	      0.00000000	     -0.00000000	     -0.00000000	     -0.10000000	     -0.00000000	     -0.05000000	     -0.00000000	     -0.00000000	     -0.00000000	     72.01114801	   -263.26720107	      4.32105073	      2.19703784	     -1.20725904	     32.36995870	    -85.34821514	    421.13301491	      0.00437617	      0.04298570	     -0.48432566	      0.14540449	     17.55349479	     -0.93280905	      0.03449979	      0.15409482	     -0.02255558	      0.01024442	     22.20520009	    -32.95825863	      0.00000000	     -0.00000000	      0.00000000	      0.00000000	      0.02152593	      0.13759330	      0.02003031	      0.15328728	      0.02003031	      0.15120892	      0.02195460	      0.14568669
      0.51514271	   -433.07372174	   -714.33747105	    441.53524360	    840.83695315	      0.00000000	      0.00000000	      0.00000000	      0.00000000	     -0.00000000	     -0.00000000	     -0.10000000	     -0.00000000	     -0.05000000	     -0.00000000	     -0.00000000	     -0.00000000	     71.82079601	   -264.88038766	      4.32262604	      2.17376026	     -1.18391812	     32.39170318	    -85.04439619	    421.83994863	      0.00440686	      0.04216773	     -0.48422078	      0.14558000	     17.55283619	     -0.89434590	      0.03461080	      0.15391390	     -0.02254833	      0.00985943	     22.18168520	    -32.28570071	      0.00000000	     -0.00000000	      0.00000000	      0.00000000	      0.02158362	      0.13754506	      0.02003002	      0.15337995	      0.02003002	      0.15111750	      0.02193591	      0.14551421
      0.51577139	   -433.52288334	   -714.56730131	    442.06386701	    840.85780460	      0.00000000	      0.00000000	      0.00000000	      0.00000000	     -0.00000000	     -0.00000000	     -0.10000000	     -0.00000000	     -0.05000000	     -0.00000000	     -0.00000000	     -0.00000000	     71.65383143	   -266.27705366	      4.32398621	      2.15329366	     -1.16354805	     32.41099349	    -84.77900198	    422.44894960	      0.00443315	      0.04145193	     -0.48412921	      0.14572759	     17.55228473	     -0.85985273	      0.03470751	      0.15375301	     -0.02254224	      0.00951600	     22.16157266	    -31.69740575	      0.00000000	     -0.00000000	      0.00000000	      0.00000000	      0.02163402	      0.13750265	      0.02002977	      0.15352231	      0.02002977	      0.15103701	      0.02191977	      0.14536329
      0.51640007	   -433.97219300	   -714.80863448	    442.59250854	    840.89474610	      0.00000000	      0.00000000	      0.00000000	      0.00000000	     -0.00000000	     -0.00000000	     -0.10000000	     -0.00000000	     -0.05000000	     -0.00000000	     -0.00000000	     -0.00000000	     71.48599147	   -267.66528271	      4.32533348	      2.13268430	     -1.14316571	     32.43073002	    -84.51322659	    423.05265323	      0.00445898	      0.04073416	     -0.48403755	      0.14587065	     17.55175523	     -0.82447642	      0.03480412	      0.15358991	     -0.02253637	      0.00916544	     22.14183043	    -31.10763803	      0.00000000	     -0.00000000	      0.00000000	      0.00000000	      0.02168448	      0.13745992	      0.02002953	      0.15360584	      0.02002953	      0.15095580	      0.02190376	      0.14521194
      0.51712470	   -434.49026487	   -715.09758803	    443.20186164	    840.95312825	      0.00000000	      0.00000000	      0.00000000	      0.00000000	     -0.00000000	     -0.00000000	     -0.10000000	     -0.00000000	     -0.05000000	     -0.00000000	     -0.00000000	      0.00000000	     71.29145839	   -269.25368062	      4.32687021	      2.10874421	     -1.11965725	     32.45388483	    -84.20642272	    423.73985657	      0.00448820	      0.03990426	     -0.48393179	      0.14602920	     17.55117289	     -0.78259603	      0.03491535	      0.15339845	     -0.02252988	      0.00875246	     22.11953596	    -30.42587060	      0.00000000	     -0.00000000	      0.00000000	      0.00000000	      0.02174272	      0.13741029	      0.02002924	      0.15377253	      0.02002924	      0.15086131	      0.02188547	      0.14503696
      0.51784932	   -435.00855157	   -715.40186295	    443.81126463	    841.03279188	      0.00000000	      0.00000000	      0.00000000	      0.00000000	     -0.00000000	     -0.00000000	     -0.10000000	     -0.00000000	     -0.05000000	     -0.00000000	     -0.00000000	      0.00000000	     71.09577836	   -270.83105278	      4.32838953	      2.08461894	     -1.09613179	     32.47765704	    -83.89912349	    424.42003702	      0.00451681	      0.03907187	     -0.48382592	      0.14618168	     17.55062134	     -0.73953020	      0.03502644	      0.15320415	     -0.02252369	      0.00832993	     22.09773624	    -29.74211256	      0.00000000	     -0.00000000	      0.00000000	      0.00000000	      0.02180101	      0.13736024	      0.02002896	      0.15386503	      0.02002896	      0.15076586	      0.02186736	      0.14486140
      0.51843407	   -435.42695699	   -715.65540343	    444.30308075	    841.10881388	      0.00000000	      0.00000000	      0.00000000	      0.00000000	     -0.00000000	     -0.00000000	     -0.10000000	     -0.00000000	     -0.05000000	     -0.00000000	     -0.00000000	      0.00000000	     70.93703987	   -272.09476444	      4.32960278	      2.06500783	     -1.07713477	     32.49715460	    -83.65078490	    424.96191193	      0.00453946	      0.03839825	     -0.48374040	      0.14629964	     17.55019927	     -0.70390543	      0.03511598	      0.15304462	     -0.02251892	      0.00798194	     22.08050624	    -29.18874205	      0.00000000	     -0.00000000	      0.00000000	      0.00000000	      0.02184810	      0.13731955	      0.02002874	      0.15400284	      0.02002874	      0.15068814	      0.02185287	      0.14471932
      0.51901882	   -435.84551357	   -715.91894997	    444.79494533	    841.19863782	      0.00000000	      0.00000000	      0.00000000	      0.00000000	     -0.00000000	     -0.00000000	     -0.10000000	     -0.00000000	     -0.05000000	     -0.00000000	     -0.00000000	      0.00000000	     70.77756451	   -273.35140270	      4.33080453	      2.04527887	     -1.05812623	     32.51706892	    -83.40213079	    425.49921067	      0.00456172	      0.03772310	     -0.48365482	      0.14641362	     17.54979827	     -0.66773369	      0.03520542	      0.15288329	     -0.02251435	      0.00762767	     22.06360022	    -28.63405122	      0.00000000	     -0.00000000	      0.00000000	      0.00000000	      0.02189521	      0.13727859	      0.02002852	      0.15408213	      0.02002852	      0.15060980	      0.02183849	      0.14457688
      0.51978241	   -436.39231576	   -716.27432971	    445.43732455	    841.33214017	      0.00000000	      0.00000000	      0.00000000	      0.00000000	     -0.00000000	     -0.00000000	     -0.10000000	     -0.00000000	     -0.05000000	     -0.00000000	     -0.00000000	      0.00000000	     70.56821380	   -274.98031911	      4.33235639	      2.01932962	     -1.03328651	     32.54353643	    -83.07695955	    426.19164413	      0.00459019	      0.03683907	     -0.48354297	      0.14655566	     17.54930551	     -0.62359410	      0.03532208	      0.15266912	     -0.02250871	      0.00715556	     22.04201281	    -27.90755444	      0.00000000	     -0.00000000	      0.00000000	      0.00000000	      0.02195679	      0.13722471	      0.02002823	      0.15426574	      0.02002823	      0.15050656	      0.02181989	      0.14439034
      0.52054600	   -436.93939575	   -716.64687793	    446.07981454	    841.48913891	      0.00000000	      0.00000000	      0.00000000	      0.00000000	     -0.00000000	     -0.00000000	     -0.10000000	     -0.00000000	     -0.05000000	     -0.00000000	     -0.00000000	      0.00000000	     70.35762386	   -276.59736974	      4.33388836	      1.99318414	     -1.00842630	     32.57074118	    -82.75126263	    426.87627757	      0.00461798	      0.03595262	     -0.48343101	      0.14669086	     17.54884486	     -0.58366917	      0.03543857	      0.15245198	     -0.02250343	      0.00667269	     22.02098102	    -27.17875855	      0.00000000	     -0.00000000	      0.00000000	      0.00000000	      0.02201840	      0.13717037	      0.02002795	      0.15436051	      0.02002795	      0.15040226	      0.02180148	      0.14420320
